<?xml version="1.0" encoding="UTF-8"?>
<svg width="40" height="40" viewBox="0 0 40 40" fill="none" xmlns="http://www.w3.org/2000/svg">
  <path d="M20 40C31.0457 40 40 31.0457 40 20C40 8.9543 31.0457 0 20 0C8.9543 0 0 8.9543 0 20C0 31.0457 8.9543 40 20 40Z" fill="#DA552F"/>
  <path d="M22.5 20H17.5V15H22.5C23.8807 15 25 16.1193 25 17.5C25 18.8807 23.8807 20 22.5 20Z" fill="white"/>
  <path d="M15 12.5V27.5H17.5V22.5H22.5C25.2614 22.5 27.5 20.2614 27.5 17.5C27.5 14.7386 25.2614 12.5 22.5 12.5H15Z" fill="white"/>
</svg>
