<?xml version="1.0" encoding="UTF-8"?>
<svg width="24" height="24" viewBox="0 0 24 24" fill="none" xmlns="http://www.w3.org/2000/svg">
  <path d="M23.5 6.507c-.278-1.023-1.097-1.83-2.133-2.104C19.54 4 12 4 12 4s-7.54 0-9.367.403c-1.036.274-1.855 1.081-2.133 2.104C0 8.31 0 12 0 12s0 3.69.5 5.493c.278 1.023 1.097 1.83 2.133 2.104C4.46 20 12 20 12 20s7.54 0 9.367-.403c1.036-.274 1.855-1.081 2.133-2.104C24 15.69 24 12 24 12s0-3.69-.5-5.493zM9.6 15.602V8.398L15.853 12l-6.253 3.602z" fill="#808080"/>
</svg>
